HIERARCHY
ROOT Hips
{
	OFFSET -335.845001 -574.368103 89.378365
	CHANNELS 6 Xposition Yposition Zposition Zrotation Yrotation Xrotation
	JOINT Spine
	{
		OFFSET 0.000000 2.080078 8.814247
		CHANNELS 6 Xposition Yposition Zposition Zrotation Yrotation Xrotation
		JOINT Spine1
		{
			OFFSET 0.000000 0.000000 8.844139
			CHANNELS 6 Xposition Yposition Zposition Zrotation Yrotation Xrotation
			JOINT Spine2
			{
				OFFSET 0.000000 0.000000 11.682266
				CHANNELS 6 Xposition Yposition Zposition Zrotation Yrotation Xrotation
				JOINT Spine3
				{
					OFFSET 0.000000 0.000000 11.746696
					CHANNELS 6 Xposition Yposition Zposition Zrotation Yrotation Xrotation
					JOINT Neck
					{
						OFFSET 0.000000 0.000000 17.658264
						CHANNELS 6 Xposition Yposition Zposition Zrotation Yrotation Xrotation
						JOINT Neck1
						{
							OFFSET 0.000000 0.000000 5.101517
							CHANNELS 6 Xposition Yposition Zposition Zrotation Yrotation Xrotation
							JOINT Head
							{
								OFFSET 0.000000 0.000000 5.101517
								CHANNELS 6 Xposition Yposition Zposition Zrotation Yrotation Xrotation
								JOINT HeadEnd
								{
									OFFSET 0.000000 0.000000 11.655090
									CHANNELS 6 Xposition Yposition Zposition Zrotation Yrotation Xrotation
									End Site
									{
										OFFSET 0.000000 0.000000 0.100006
									}
								}
							}
						}
					}
					JOINT RightShoulder
					{
						OFFSET -2.625397 0.000000 11.175217
						CHANNELS 6 Xposition Yposition Zposition Zrotation Yrotation Xrotation
						JOINT RightArm
						{
							OFFSET 0.000000 0.000000 10.434708
							CHANNELS 6 Xposition Yposition Zposition Zrotation Yrotation Xrotation
							JOINT RightForeArm
							{
								OFFSET 0.000000 0.000000 29.628418
								CHANNELS 6 Xposition Yposition Zposition Zrotation Yrotation Xrotation
								JOINT RightHand
								{
									OFFSET 0.000000 0.000000 22.857605
									CHANNELS 6 Xposition Yposition Zposition Zrotation Yrotation Xrotation
									JOINT RightHandThumb1
									{
										OFFSET -2.867310 -2.944275 3.959564
										CHANNELS 6 Xposition Yposition Zposition Zrotation Yrotation Xrotation
										JOINT RightHandThumb2
										{
											OFFSET 0.000000 0.000000 3.350403
											CHANNELS 6 Xposition Yposition Zposition Zrotation Yrotation Xrotation
											JOINT RightHandThumb3
											{
												OFFSET 0.000000 0.000000 3.756516
												CHANNELS 6 Xposition Yposition Zposition Zrotation Yrotation Xrotation
												JOINT RightHandThumb4
												{
													OFFSET 0.000000 0.000000 3.147339
													CHANNELS 6 Xposition Yposition Zposition Zrotation Yrotation Xrotation
													End Site
													{
														OFFSET 0.000000 0.000000 0.100006
													}
												}
											}
										}
									}
									JOINT RightHandIndex1
									{
										OFFSET -0.086761 -2.345276 10.030899
										CHANNELS 6 Xposition Yposition Zposition Zrotation Yrotation Xrotation
										JOINT RightHandIndex2
										{
											OFFSET 0.000000 0.000000 4.061096
											CHANNELS 6 Xposition Yposition Zposition Zrotation Yrotation Xrotation
											JOINT RightHandIndex3
											{
												OFFSET 0.000000 0.000000 3.248871
												CHANNELS 6 Xposition Yposition Zposition Zrotation Yrotation Xrotation
												JOINT RightHandIndex4
												{
													OFFSET 0.000000 0.000000 2.639709
													CHANNELS 6 Xposition Yposition Zposition Zrotation Yrotation Xrotation
													End Site
													{
														OFFSET 0.000000 0.000000 0.100006
													}
												}
											}
										}
									}
									JOINT RightHandMiddle1
									{
										OFFSET 0.104095 -0.006775 9.502945
										CHANNELS 6 Xposition Yposition Zposition Zrotation Yrotation Xrotation
										JOINT RightHandMiddle2
										{
											OFFSET 0.000000 0.000000 4.568726
											CHANNELS 6 Xposition Yposition Zposition Zrotation Yrotation Xrotation
											JOINT RightHandMiddle3
											{
												OFFSET 0.000000 0.000000 3.654984
												CHANNELS 6 Xposition Yposition Zposition Zrotation Yrotation Xrotation
												JOINT RightHandMiddle4
												{
													OFFSET 0.000000 0.000000 2.741241
													CHANNELS 6 Xposition Yposition Zposition Zrotation Yrotation Xrotation
													End Site
													{
														OFFSET 0.000000 0.000000 0.100006
													}
												}
											}
										}
									}
									JOINT RightHandRing1
									{
										OFFSET 0.086761 2.267456 8.921707
										CHANNELS 6 Xposition Yposition Zposition Zrotation Yrotation Xrotation
										JOINT RightHandRing2
										{
											OFFSET 0.000000 0.000000 4.061096
											CHANNELS 6 Xposition Yposition Zposition Zrotation Yrotation Xrotation
											JOINT RightHandRing3
											{
												OFFSET 0.000000 0.000000 3.654984
												CHANNELS 6 Xposition Yposition Zposition Zrotation Yrotation Xrotation
												JOINT RightHandRing4
												{
													OFFSET 0.000000 0.000000 2.741241
													CHANNELS 6 Xposition Yposition Zposition Zrotation Yrotation Xrotation
													End Site
													{
														OFFSET 0.000000 0.000000 0.100006
													}
												}
											}
										}
									}
									JOINT RightHandPinky1
									{
										OFFSET -0.173492 4.467224 7.976990
										CHANNELS 6 Xposition Yposition Zposition Zrotation Yrotation Xrotation
										JOINT RightHandPinky2
										{
											OFFSET 0.000000 0.000000 3.350403
											CHANNELS 6 Xposition Yposition Zposition Zrotation Yrotation Xrotation
											JOINT RightHandPinky3
											{
												OFFSET 0.000000 0.000000 2.842758
												CHANNELS 6 Xposition Yposition Zposition Zrotation Yrotation Xrotation
												JOINT RightHandPinky4
												{
													OFFSET 0.000000 0.000000 2.639709
													CHANNELS 6 Xposition Yposition Zposition Zrotation Yrotation Xrotation
													End Site
													{
														OFFSET 0.000000 0.000000 0.100006
													}
												}
											}
										}
									}
									JOINT RightForeArmEnd
									{
										OFFSET 0.000000 0.000000 0.000000
										CHANNELS 6 Xposition Yposition Zposition Zrotation Yrotation Xrotation
										End Site
										{
											OFFSET 0.000000 0.000000 0.100006
										}
									}
								}
								JOINT RightArmEnd
								{
									OFFSET 0.000000 0.000000 0.000000
									CHANNELS 6 Xposition Yposition Zposition Zrotation Yrotation Xrotation
									End Site
									{
										OFFSET 0.000000 0.000000 0.100006
									}
								}
							}
						}
					}
					JOINT LeftShoulder
					{
						OFFSET 2.625397 0.000000 11.175217
						CHANNELS 6 Xposition Yposition Zposition Zrotation Yrotation Xrotation
						JOINT LeftArm
						{
							OFFSET 0.000000 0.000000 10.813629
							CHANNELS 6 Xposition Yposition Zposition Zrotation Yrotation Xrotation
							JOINT LeftForeArm
							{
								OFFSET 0.000000 0.000000 28.724777
								CHANNELS 6 Xposition Yposition Zposition Zrotation Yrotation Xrotation
								JOINT LeftHand
								{
									OFFSET 0.644379 0.328857 25.716171
									CHANNELS 6 Xposition Yposition Zposition Zrotation Yrotation Xrotation
									JOINT LeftHandThumb1
									{
										OFFSET 2.867310 -2.944275 3.959564
										CHANNELS 6 Xposition Yposition Zposition Zrotation Yrotation Xrotation
										JOINT LeftHandThumb2
										{
											OFFSET 0.000000 0.000000 3.350403
											CHANNELS 6 Xposition Yposition Zposition Zrotation Yrotation Xrotation
											JOINT LeftHandThumb3
											{
												OFFSET 0.000000 0.000000 3.756516
												CHANNELS 6 Xposition Yposition Zposition Zrotation Yrotation Xrotation
												JOINT LeftHandThumb4
												{
													OFFSET 0.000000 0.000000 3.100006
													CHANNELS 6 Xposition Yposition Zposition Zrotation Yrotation Xrotation
													End Site
													{
														OFFSET 0.000000 0.000000 0.100006
													}
												}
											}
										}
									}
									JOINT LeftHandIndex1
									{
										OFFSET 0.086761 -2.345276 10.030899
										CHANNELS 6 Xposition Yposition Zposition Zrotation Yrotation Xrotation
										JOINT LeftHandIndex2
										{
											OFFSET 0.000000 0.000000 4.061096
											CHANNELS 6 Xposition Yposition Zposition Zrotation Yrotation Xrotation
											JOINT LeftHandIndex3
											{
												OFFSET 0.000000 0.000000 3.248871
												CHANNELS 6 Xposition Yposition Zposition Zrotation Yrotation Xrotation
												JOINT LeftHandIndex4
												{
													OFFSET 0.000000 0.000000 2.639709
													CHANNELS 6 Xposition Yposition Zposition Zrotation Yrotation Xrotation
													End Site
													{
														OFFSET 0.000000 0.000000 0.100006
													}
												}
											}
										}
									}
									JOINT LeftHandMiddle1
									{
										OFFSET -0.104095 -0.006775 9.502945
										CHANNELS 6 Xposition Yposition Zposition Zrotation Yrotation Xrotation
										JOINT LeftHandMiddle2
										{
											OFFSET 0.000000 0.000000 4.568726
											CHANNELS 6 Xposition Yposition Zposition Zrotation Yrotation Xrotation
											JOINT LeftHandMiddle3
											{
												OFFSET 0.000000 0.000000 3.654984
												CHANNELS 6 Xposition Yposition Zposition Zrotation Yrotation Xrotation
												JOINT LeftHandMiddle4
												{
													OFFSET 0.000000 0.000000 2.741241
													CHANNELS 6 Xposition Yposition Zposition Zrotation Yrotation Xrotation
													End Site
													{
														OFFSET 0.000000 0.000000 0.100006
													}
												}
											}
										}
									}
									JOINT LeftHandRing1
									{
										OFFSET -0.086761 2.267456 8.921707
										CHANNELS 6 Xposition Yposition Zposition Zrotation Yrotation Xrotation
										JOINT LeftHandRing2
										{
											OFFSET 0.000000 0.000000 4.061096
											CHANNELS 6 Xposition Yposition Zposition Zrotation Yrotation Xrotation
											JOINT LeftHandRing3
											{
												OFFSET 0.000000 0.000000 3.654984
												CHANNELS 6 Xposition Yposition Zposition Zrotation Yrotation Xrotation
												JOINT LeftHandRing4
												{
													OFFSET 0.000000 0.000000 2.741241
													CHANNELS 6 Xposition Yposition Zposition Zrotation Yrotation Xrotation
													End Site
													{
														OFFSET 0.000000 0.000000 0.100006
													}
												}
											}
										}
									}
									JOINT LeftHandPinky1
									{
										OFFSET 0.173492 4.467224 7.976990
										CHANNELS 6 Xposition Yposition Zposition Zrotation Yrotation Xrotation
										JOINT LeftHandPinky2
										{
											OFFSET 0.000000 0.000000 3.350403
											CHANNELS 6 Xposition Yposition Zposition Zrotation Yrotation Xrotation
											JOINT LeftHandPinky3
											{
												OFFSET 0.000000 0.000000 2.842758
												CHANNELS 6 Xposition Yposition Zposition Zrotation Yrotation Xrotation
												JOINT LeftHandPinky4
												{
													OFFSET 0.000000 0.000000 2.639709
													CHANNELS 6 Xposition Yposition Zposition Zrotation Yrotation Xrotation
													End Site
													{
														OFFSET 0.000000 0.000000 0.100006
													}
												}
											}
										}
									}
									JOINT LeftForeArmEnd
									{
										OFFSET 0.000000 0.000000 0.000000
										CHANNELS 6 Xposition Yposition Zposition Zrotation Yrotation Xrotation
										End Site
										{
											OFFSET 0.000000 0.000000 0.100006
										}
									}
								}
								JOINT LeftArmEnd
								{
									OFFSET 0.000000 0.000000 0.000000
									CHANNELS 6 Xposition Yposition Zposition Zrotation Yrotation Xrotation
									End Site
									{
										OFFSET 0.000000 0.000000 0.100006
									}
								}
							}
						}
					}
				}
			}
		}
	}
	JOINT RightUpLeg
	{
		OFFSET -11.289948 0.000000 0.000000
		CHANNELS 6 Xposition Yposition Zposition Zrotation Yrotation Xrotation
		JOINT RightLeg
		{
			OFFSET 0.000000 0.000000 -38.200329
			CHANNELS 6 Xposition Yposition Zposition Zrotation Yrotation Xrotation
			JOINT RightFoot
			{
				OFFSET 0.000000 0.000000 -39.900856
				CHANNELS 6 Xposition Yposition Zposition Zrotation Yrotation Xrotation
				JOINT RightToeBase
				{
					OFFSET 0.000000 -15.261658 0.000002
					CHANNELS 6 Xposition Yposition Zposition Zrotation Yrotation Xrotation
					JOINT RightToeBaseEnd
					{
						OFFSET 0.000000 -7.370728 0.000000
						CHANNELS 6 Xposition Yposition Zposition Zrotation Yrotation Xrotation
						End Site
						{
							OFFSET 0.000000 0.000000 0.100000
						}
					}
				}
				JOINT RightLegEnd
				{
					OFFSET 0.000000 0.000000 0.000000
					CHANNELS 6 Xposition Yposition Zposition Zrotation Yrotation Xrotation
					End Site
					{
						OFFSET 0.000000 0.000000 0.100000
					}
				}
			}
			JOINT RightUpLegEnd
			{
				OFFSET 0.000000 0.000000 0.000000
				CHANNELS 6 Xposition Yposition Zposition Zrotation Yrotation Xrotation
				End Site
				{
					OFFSET 0.000000 0.000000 0.099998
				}
			}
		}
	}
	JOINT LeftUpLeg
	{
		OFFSET 11.315674 0.000000 0.000000
		CHANNELS 6 Xposition Yposition Zposition Zrotation Yrotation Xrotation
		JOINT LeftLeg
		{
			OFFSET 0.000000 0.000000 -38.200329
			CHANNELS 6 Xposition Yposition Zposition Zrotation Yrotation Xrotation
			JOINT LeftFoot
			{
				OFFSET 0.000000 0.000000 -39.900856
				CHANNELS 6 Xposition Yposition Zposition Zrotation Yrotation Xrotation
				JOINT LeftToeBase
				{
					OFFSET 0.000000 -15.261658 0.000002
					CHANNELS 6 Xposition Yposition Zposition Zrotation Yrotation Xrotation
					JOINT LeftToeBaseEnd
					{
						OFFSET 0.000000 -7.539978 0.000000
						CHANNELS 6 Xposition Yposition Zposition Zrotation Yrotation Xrotation
						End Site
						{
							OFFSET 0.000000 0.000000 0.100000
						}
					}
				}
				JOINT LeftLegEnd
				{
					OFFSET 0.000000 0.000000 0.000000
					CHANNELS 6 Xposition Yposition Zposition Zrotation Yrotation Xrotation
					End Site
					{
						OFFSET 0.000000 0.000000 0.100000
					}
				}
			}
			JOINT LeftUpLegEnd
			{
				OFFSET 0.000000 0.000000 0.000000
				CHANNELS 6 Xposition Yposition Zposition Zrotation Yrotation Xrotation
				End Site
				{
					OFFSET 0.000000 0.000000 0.099998
				}
			}
		}
	}
}
MOTION
Frames: 2
Frame Time: 0.016667
-34.111176 -18.643433 88.095901 -11.395459 2.230685 -13.895999 -0.000008 2.080102 8.814241 -0.723410 -5.278939 9.201951 -0.000002 0.000022 8.844156 0.640876 -0.191387 3.645414 -0.000000 0.000010 11.682265 -1.650950 1.565821 3.822324 0.000006 -0.000002 11.746665 -0.661941 4.226549 1.578088 -0.000010 -0.000003 17.658253 -5.519535 -2.072259 -5.105659 0.000004 0.000006 5.101502 -5.579107 1.426971 -10.421303 -0.000012 -0.000009 5.101498 -2.257216 0.884912 -21.058797 0.000009 0.000008 11.655080 -0.000001 -0.000001 -0.000001 -2.625381 -0.000011 11.175212 13.749026 -73.397404 -0.036854 -0.000007 0.000000 10.434696 14.907709 -8.538193 22.513927 0.000015 0.000031 29.628386 24.608521 1.109084 35.305309 -0.000053 -0.000032 22.857594 -53.006206 6.451958 -20.838673 -2.867310 -2.944321 3.959526 32.415798 -13.591719 57.445265 0.000000 -0.000008 3.350422 -4.708366 4.020531 -9.020446 0.000007 0.000004 3.756477 -3.201730 2.871751 -6.226962 0.000014 -0.000060 3.147350 -0.000000 -0.000003 0.000000 -0.086777 -2.345276 10.030899 -5.341831 20.920897 10.253808 -0.000011 -0.000040 4.061104 0.531567 0.000311 0.000114 -0.000024 -0.000066 3.248853 0.030872 0.000007 -0.000872 -0.000043 0.000008 2.639734 -0.000001 -0.000001 0.000003 0.104092 -0.006807 9.502979 0.038848 20.764267 5.925604 -0.000051 -0.000014 4.568705 0.541427 -0.000092 0.000143 -0.000043 -0.000027 3.654970 0.037105 0.000048 -0.000137 -0.000044 -0.000002 2.741245 -0.000001 -0.000000 -0.000000 0.086731 2.267455 8.921701 188.888458 -201.696251 -177.744130 -0.000059 -0.000039 4.061115 -1.087387 -0.000031 0.000153 -0.000006 0.000011 3.654990 -0.063219 0.000001 -0.000064 0.000014 -0.000003 2.741204 0.000001 0.000001 -0.000002 -0.173500 4.467152 7.977022 18.232987 23.215772 -1.044246 0.000003 -0.000086 3.350423 -2.062116 -0.000032 0.000082 0.000000 -0.000108 2.842783 -0.053011 0.000004 -0.000142 -0.000034 -0.000063 2.639726 -0.000000 0.000000 0.000000 -0.000011 -0.000010 -0.000002 0.000002 -0.000004 -0.000002 -0.000005 0.000014 -0.000006 -0.000001 -0.000001 0.000002 2.625397 0.000013 11.175226 -13.574624 75.052571 -0.598831 -0.000004 0.000002 10.813625 -16.882966 18.840004 3.073755 0.000011 -0.000061 28.724812 -20.005286 1.358075 56.719544 0.644417 0.328789 25.716156 41.442507 -17.236920 -30.347121 2.867210 -2.944305 3.959511 -32.691300 12.809348 58.820093 -0.000046 -0.000031 3.350456 3.067622 -2.763452 -5.974297 -0.000034 0.000010 3.756523 2.099423 -1.953382 -4.132017 -0.000038 0.000004 3.099995 0.000000 -0.000000 0.000001 0.086752 -2.345253 10.030891 -12.626085 -19.801615 27.481138 -0.000050 -0.000013 4.061098 0.547667 0.000250 0.000125 -0.000061 0.000016 3.248875 0.044946 -0.000006 0.002908 -0.000038 0.000063 2.639736 0.000000 -0.000001 0.000000 -0.104136 -0.006779 9.502930 -8.477206 -24.295586 16.977463 -0.000038 -0.000055 4.568745 0.578192 -0.000109 0.000009 -0.000025 -0.000063 3.655005 0.069813 -0.000004 0.000975 -0.000018 0.000008 2.741258 -0.000001 -0.000000 -0.000000 -0.086825 2.267485 8.921696 -180.263883 208.187759 -177.224995 -0.000036 -0.000022 4.061101 -1.044293 0.024460 -0.000355 -0.000035 -0.000003 3.655000 -0.086462 -0.012899 -0.039298 -0.000024 -0.000003 2.741246 0.000002 -0.000000 0.000001 0.173462 4.467176 7.976997 -171.019481 206.850571 -191.981181 -0.000041 -0.000010 3.350422 -2.008249 -0.000180 0.000327 -0.000016 -0.000017 2.842743 -0.004710 -0.000010 0.000774 -0.000020 0.000002 2.639721 -0.000000 0.000000 0.000001 -0.000023 -0.000047 0.000024 -0.000001 -0.000001 -0.000003 -0.000019 -0.000008 -0.000015 0.000001 -0.000001 0.000001 -11.289938 -0.000017 -0.000004 -7.250307 -1.272658 14.507959 -0.000014 0.000004 -38.200317 -0.545924 0.067595 7.055080 -0.000041 -0.000079 -39.900848 -4.271148 2.930226 17.853390 0.000013 -15.261740 0.000031 1.300618 -0.003062 -16.479276 -0.000005 -7.370657 -0.000001 -0.000002 0.000000 -0.000000 -0.000006 0.000003 0.000001 -0.000000 -0.000000 0.000001 -0.000014 0.000066 -0.000006 -0.000001 -0.000000 0.000000 11.315681 0.000006 0.000000 -1.998235 -17.383555 5.226328 0.000006 0.000012 -38.200314 1.136985 -0.528846 24.940811 -0.000001 0.000022 -39.900875 17.281067 6.699278 27.483918 0.000001 -15.261684 0.000010 -1.003755 -0.496042 -21.907203 -0.000026 -7.539977 -0.000002 -0.000000 0.000000 0.000002 -0.000009 -0.000002 -0.000001 0.000000 -0.000001 0.000001 0.000035 0.000000 0.000012 -0.000000 -0.000002 0.000001 
-34.446533 -18.648132 88.181999 -11.879996 1.824049 -13.808681 0.000013 2.080076 8.814241 -0.721996 -5.201160 9.234640 0.000005 0.000001 8.844148 0.634909 -0.198426 3.655514 0.000006 0.000023 11.682265 -1.708081 1.562606 3.695693 0.000006 -0.000015 11.746704 -0.704759 4.236590 1.457044 -0.000013 -0.000032 17.658283 -5.247026 -1.855656 -5.233676 -0.000004 -0.000002 5.101492 -5.344615 1.379073 -10.455207 0.000013 0.000001 5.101519 -2.255254 0.950745 -21.065376 -0.000010 0.000005 11.655066 -0.000001 -0.000000 0.000001 -2.625397 -0.000010 11.175241 13.536718 -73.368185 -0.036933 -0.000002 -0.000023 10.434681 15.558864 -8.694745 21.461802 0.000004 0.000000 29.628420 24.752585 1.040414 34.448674 0.000008 -0.000021 22.857643 -53.133872 6.403842 -21.071134 -2.867355 -2.944260 3.959549 32.415764 -13.591751 57.445204 -0.000010 -0.000010 3.350384 -4.708351 4.020540 -9.020579 0.000005 0.000034 3.756514 -3.201743 2.871793 -6.227020 0.000009 -0.000052 3.147348 -0.000002 0.000001 -0.000000 -0.086777 -2.345299 10.030891 -5.349164 20.869774 10.245038 -0.000023 -0.000045 4.061109 0.531342 0.000335 0.000116 -0.000020 -0.000035 3.248892 0.030688 0.000003 -0.000887 -0.000039 -0.000010 2.639712 0.000001 -0.000001 0.000002 0.104090 -0.006807 9.502960 0.027546 20.700034 5.911014 -0.000000 -0.000029 4.568715 0.541172 -0.000086 0.000138 -0.000019 0.000016 3.654986 0.036486 0.000043 -0.000137 -0.000022 -0.000005 2.741245 0.000001 -0.000000 -0.000000 0.086769 2.267429 8.921682 188.867148 -201.680624 -177.757217 0.000004 -0.000069 4.061076 -1.087037 -0.187999 0.003720 -0.000023 -0.000061 3.654970 -0.063144 0.098793 -0.000171 -0.000004 0.000000 2.741212 0.000000 0.000000 0.000000 -0.173485 4.467140 7.977038 18.187339 23.063153 -1.042651 0.000000 -0.000082 3.350418 -2.060507 -0.000003 0.000084 0.000015 -0.000076 2.842779 -0.051662 0.000000 -0.000144 -0.000028 -0.000067 2.639736 0.000000 0.000001 0.000001 -0.000008 -0.000006 -0.000023 -0.000000 -0.000002 -0.000002 0.000014 0.000014 -0.000002 -0.000001 -0.000002 -0.000001 2.625397 -0.000019 11.175247 -13.295090 75.147927 -0.581533 -0.000011 0.000017 10.813625 -17.470885 18.926131 1.846261 0.000050 0.000015 28.724779 -20.274348 1.292116 55.988478 0.644386 0.328751 25.716164 40.647371 -17.233057 -30.108434 2.867271 -2.944305 3.959541 -32.750545 12.655490 59.096832 0.000010 -0.000090 3.350434 2.747836 -2.501734 -5.369972 0.000016 0.000020 3.756545 1.883152 -1.764828 -3.715812 0.000001 0.000002 3.100008 0.000000 -0.000000 0.000003 0.086729 -2.345291 10.030876 -12.886979 -20.788570 27.724038 -0.000054 0.000026 4.061094 0.548366 0.000499 0.000123 -0.000045 0.000030 3.248858 0.045606 -0.000001 0.002971 -0.000045 -0.000002 2.639708 -0.000000 -0.000002 -0.000001 -0.104094 -0.006779 9.502930 -8.653139 -25.008487 17.187828 -0.000014 -0.000091 4.568758 0.578176 -0.000052 0.000012 -0.000005 -0.000069 3.655019 0.069947 0.000004 0.000933 -0.000030 -0.000001 2.741247 0.000000 -0.000003 -0.000001 -0.086812 2.267445 8.921696 -180.301353 208.414234 -177.133101 -0.000061 -0.000011 4.061098 -1.044905 0.062753 -0.001053 -0.000030 0.000026 3.654997 -0.085041 -0.032499 -0.036179 -0.000044 0.000072 2.741255 -0.000003 0.000000 0.000002 0.173489 4.467190 7.977020 -170.980330 206.494322 -191.865669 -0.000026 0.000013 3.350402 -2.008061 0.000008 0.000319 -0.000042 -0.000024 2.842737 -0.004501 -0.000011 0.001016 -0.000049 0.000002 2.639709 -0.000001 0.000002 0.000001 0.000025 -0.000051 0.000033 -0.000000 -0.000004 0.000002 -0.000005 -0.000006 -0.000007 0.000001 0.000003 0.000001 -11.289935 0.000000 -0.000006 -7.092173 -1.121444 14.380866 -0.000014 0.000073 -38.200317 -0.518584 0.064220 7.059729 -0.000010 -0.000077 -39.900864 -3.923929 3.168994 17.873601 0.000002 -15.261739 0.000023 1.248860 -0.008094 -16.534204 0.000012 -7.370666 -0.000001 -0.000000 -0.000000 -0.000001 0.000000 0.000003 -0.000000 -0.000000 0.000000 -0.000001 -0.000025 0.000070 -0.000005 -0.000001 -0.000000 0.000001 11.315666 -0.000093 -0.000004 -2.118943 -17.075661 5.337633 0.000015 0.000023 -38.200321 1.081520 -0.500017 24.808958 0.000041 -0.000008 -39.900841 17.755715 6.124713 28.326965 -0.000006 -15.261739 0.000010 -0.992562 -0.215419 -22.306052 -0.000021 -7.539977 -0.000000 -0.000000 -0.000000 0.000002 -0.000008 0.000008 -0.000002 -0.000001 0.000000 0.000001 0.000027 0.000069 0.000002 -0.000002 -0.000001 0.000001 
